<svg width="64" height="64" viewBox="0 0 64 64" xmlns="http://www.w3.org/2000/svg">
  <defs>
    <linearGradient id="bg" x1="0" y1="0" x2="0" y2="1">
      <stop offset="0" stop-color="#242424"/>
      <stop offset="1" stop-color="#050505"/>
    </linearGradient>
  </defs>
  <rect width="64" height="64" rx="14.4" ry="14.4" fill="url(#bg)"/>
  <g transform="translate(12.16,12.16) scale(0.06)"><path d="m 221.43774,117.40186 c 14.573,-1.854 40.381,0.3 54.954,2.808 57.682,9.686 109.08,42.076 142.709,89.932 -3.074,1.492 -6.647,3.454 -9.601,5.184 -18.01,10.547 -37.675,19.646 -55.502,30.351 -1.896,-2.115 -4.012,-4.765 -5.903,-6.967 -92.534,-107.825 -259.102996,-41.49 -275.316996,92.013 -4.373,36.009 10.916,81.324 36.958996,106.54 78.016,75.537 183.903,0.984 243.962,-59.084 11.689,-11.1 25.747,-25.263 35.833,-37.685 1.448,2.576 3.216,5.099 4.794,7.619 11.878,18.966 23.767,37.847 36.133,56.492 -60.009,67.692 -139.475,128.087 -232.997,135.731 C 86.976744,549.36686 5.1367441,463.66586 0.22774407,356.17486 -5.4882559,231.02686 97.161744,123.86786 221.43774,117.40186 Z" fill="#ffffff"/><path d="m 657.56074,107.64398 0.133,0.475 c -1.4,3.526 -73.23,64.157 -81.724,71.524 l -67.496,58.835 c -12.3,10.576 -25.12,20.976 -36.765,32.176 -3.284,3.159 -7.558,6.14 -10.472,9.591 l 0.349,0.347 c 2.454,-1.407 6.524,-4.77 9.284,-6.656 11.186,-7.564 22.22,-15.35 33.095,-23.355 32.749,-23.818 65.21,-48.031 97.376,-72.631 l 25.246,-19.393 c 4.591,-3.577 11.021,-9.128 15.946,-11.871 l -177.74,178.785 c 2.154,3.175 5.495,7.113 7.873,10.336 6.705,9.277 13.538,18.461 20.498,27.549 l 49.428,65.499 58.575,77.846 19.843,26.296 c 4.481,5.933 8.479,10.773 12.466,17.053 -11.064,-5.868 -22.84,-12.865 -33.827,-19.089 -26.432,-14.806 -52.717,-29.871 -78.854,-45.192 -7.456,-4.297 -14.95,-8.528 -22.482,-12.691 -2.368,-1.303 -14.025,-7.513 -14.703,-8.442 -9.044,-12.388 -19.857,-30.146 -28.04,-42.783 l -64.161,-100.143 -19.266,-30.147 c -4.147,-6.419 -8.925,-13.308 -12.664,-19.88 2.873,-1.969 8.608,-4.854 11.849,-6.602 l 20.354,-11.078 66.592,-36.837 139.945,-76.829 c 19.365,-10.596 39.863,-22.574 59.342,-32.693 z" fill="#ffffff"/><path d="m 181.64574,242.06888 c 12.504,-0.908 38.439,15.878 49.807,22.341 18.79,10.634 37.513,21.386 56.169,32.255 9.941,5.716 30.572,16.485 39.129,22.549 1.646,1.146 3.023,2.637 4.033,4.369 8.374,14.34 -12.469,22.851 -22.21,28.327 l -33.408,18.586 c -16.914,9.283 -33.879,18.473 -50.895,27.569 -8.95,4.755 -17.901,9.777 -27.156,13.837 -27.13,11.875 -28.421,-6.286 -28.298,-27.974 0.227,-40.155 -0.401,-80.282 0.355,-120.417 0.189,-10.009 1.832,-18.135 12.474,-21.442 z" fill="#ffffff"/><path d="m 457.34874,275.23148 c 21.927,12.97 45.04,25.072 67.177,38.145 30.062,17.87 59.183,37.277 87.249,58.142 1.914,1.428 13.176,9.538 13.66,10.944 -5.551,-2.703 -13.995,-8.058 -19.553,-11.337 l -39.503,-23.644 c -27.711,-16.727 -55.791,-33.489 -82.332,-51.961 -7.629,-5.31 -20.837,-13.563 -27.601,-19.201 z" fill="#ffffff"/><path d="m 445.06174,324.66598 c 3.9,1.775 8.602,4.916 12.287,7.274 l -0.903,1.088 c -4.194,-2.631 -7.787,-4.948 -11.384,-8.362 z" fill="#ffffff"/></g>
</svg>
